<svg width="17" height="18" viewBox="0 0 17 18" fill="none" xmlns="http://www.w3.org/2000/svg">
<path d="M8.59032 0.27249C13.2693 0.284518 16.9981 4.04937 16.9861 8.75242C16.9861 13.3833 13.1851 17.1482 8.5422 17.1482C3.8632 17.1361 0.098352 13.3593 0.11038 8.69228C0.122409 4.01328 3.89929 0.260461 8.59032 0.27249ZM15.7471 8.72837C15.7592 4.75904 12.5356 1.5114 8.59032 1.5114C4.59693 1.5114 1.34929 4.73498 1.34929 8.71634C1.34929 12.6616 4.59693 15.9093 8.5422 15.9093C12.4995 15.9093 15.7471 12.6736 15.7471 8.72837Z" fill="black"/>
<path d="M9.16775 5.51688C9.16775 6.32277 9.14369 7.11664 9.17978 7.92253C9.19181 8.15107 9.3602 8.45178 9.55266 8.57206C10.4909 9.17347 11.4652 9.72677 12.4394 10.2921C12.8243 10.5086 13.1251 10.7853 12.8604 11.2544C12.5718 11.7475 12.1748 11.6032 11.7779 11.3746C10.6713 10.689 9.55266 10.0155 8.422 9.36592C8.07318 9.16144 7.91681 8.90885 7.91681 8.49989C7.94087 6.67159 7.92884 4.85532 7.92884 3.03905C7.92884 2.60603 8.04912 2.24519 8.53025 2.24519C9.04747 2.23316 9.17978 2.60603 9.16775 3.06311C9.15572 3.869 9.16775 4.68693 9.16775 5.51688Z" fill="black"/>
</svg>
