<svg width="38" height="22" viewBox="0 0 38 22" fill="none" xmlns="http://www.w3.org/2000/svg">
<path d="M28.426 11.0876C27.757 10.967 25.761 11.2082 24.9056 11.2082L24.4779 11.1424C24.4779 11.1424 24.4121 11.1424 24.3573 11.1424H24.7192C24.7192 9.74964 24.2366 10.1115 24.7192 9.87028L24.1708 9.74964C24.2915 9.68384 24.5986 9.68384 24.7192 9.68384C25.3224 9.49741 24.9605 9.61804 25.1469 9.37677C24.6644 8.94907 24.3573 8.41169 24.6644 7.50145C24.9056 6.77764 25.3333 6.41573 25.454 5.92223C23.8747 4.95715 18.7313 6.64604 17.4592 6.1635C15.2768 5.31905 17.0973 1.0749 12.8531 1.62324C9.02568 2.18254 2.85137 5.45065 0 7.15051C2.73074 6.18543 5.1544 5.03391 8.18124 4.2443C9.33275 3.93723 11.7016 3.33406 13.0286 3.64113C14.0594 3.8824 14.0594 4.60621 14.9039 5.87836C15.211 6.30606 15.3864 6.3609 15.6277 6.7228C14.2349 6.84344 2.29206 9.02583 0.603175 9.62901L5.93304 9.02583C7.68773 8.78456 9.45339 8.59813 11.2629 8.42266C14.1143 8.11559 19.6306 7.27114 22.2297 7.51241C22.2955 7.75368 22.2297 7.69885 22.0433 7.99495C21.8569 8.23622 21.802 8.35686 21.6156 8.59813C21.3085 9.08067 21.2537 9.50837 21.1879 10.0567C17.6127 10.7257 12.6996 11.274 9.48629 11.932C7.61097 12.2939 1.49149 13.0178 0.394805 13.4455C2.63203 13.5661 5.1873 13.3248 7.49033 13.3248C12.3377 13.3248 24.0941 13.4455 27.8557 15.0247C29.073 15.2659 31.3102 16.242 30.3452 17.7554C29.7968 18.5999 28.2834 19.6965 28.1628 19.8172C27.9763 20.0584 28.097 19.883 28.097 19.9378L27.9763 20.2997V20.3655C30.7619 20.1791 33.4926 23.4582 36.2782 21.21C36.7059 20.8481 37.4955 19.872 37.671 19.2688C37.6052 19.5101 36.4537 20.2997 35.9711 20.541C35.1815 20.9029 34.3371 21.0893 33.361 20.9029C31.3651 20.5958 30.8167 19.5101 28.5137 19.8172C28.9962 19.3346 30.0929 18.7863 30.6303 18.238C32.1437 16.7245 34.2713 13.939 35.3022 11.9978C34.4248 10.7257 30.1807 11.274 28.426 11.0876Z" fill="#18447A"/>
<path d="M0.789688 13.2708C4.4855 13.3366 33.5146 9.38853 35.2693 11.9986C37.2105 8.90599 36.1138 9.6956 35.5764 8.97179C35.8177 8.36861 36.4867 6.48232 36.4867 5.94495C35.0281 4.48636 30.6742 5.75851 28.6125 6.30685C27.768 6.49329 26.9784 6.91003 26.2437 7.03066C27.6364 7.03066 29.764 6.24105 31.5187 6.18622C33.6353 6.06558 35.2803 6.73456 34.9732 8.97179C25.2128 7.69964 0.427783 13.2159 0.789688 13.2708Z" fill="#2B92D0"/>
<path d="M0.187256 3.81645C1.52521 3.38874 2.97283 2.42366 3.6418 1.57922L3.7076 3.52035C3.10443 3.82742 2.62189 4.36479 2.07355 4.7925C1.70068 5.0886 0.72463 5.81241 0.428526 6.24011L4.55205 3.87128C4.42044 3.02684 4.29981 0.427706 3.88307 0C3.26893 0.186436 2.54512 2.73074 0.187256 3.81645Z" fill="#18447A"/>
</svg>
