<svg width="32" height="32" viewBox="0 0 32 32" fill="none" xmlns="http://www.w3.org/2000/svg">
<circle cx="15.8228" cy="15.8055" r="15.3317" fill="#2B92D0"/>
<path d="M21.6198 25.2215C22.8492 24.7953 23.8705 24.0786 24.7783 23.1487C25.062 22.8581 25.3268 22.5288 25.516 22.1413C25.724 21.6958 25.724 21.2502 25.4214 20.8434C25.2134 20.5528 24.9864 20.2816 24.7216 20.0491C23.984 19.3323 23.1329 18.7318 22.2629 18.1894C21.7333 17.86 21.1848 17.5307 20.5796 17.3176C19.8798 17.0658 19.3502 17.2595 18.9531 17.8794C18.8585 18.0344 18.7639 18.2087 18.6883 18.3831C18.5181 18.7318 18.3667 19.0805 18.1965 19.4486C18.1587 19.526 18.102 19.5454 18.0263 19.5067C17.875 19.4292 17.7048 19.3711 17.5535 19.2742C16.4943 18.6737 15.5487 17.9375 14.6787 17.1045C13.8276 16.2715 13.1089 15.3416 12.4847 14.3149C12.2767 13.9856 12.1254 13.6562 11.9552 13.3075C11.8795 13.1525 11.8795 13.1332 12.0497 13.0557C12.2578 12.9588 12.4658 12.862 12.6739 12.7651C12.9954 12.5908 13.3358 12.4358 13.6384 12.242C14.0734 11.9321 14.2815 11.4865 14.168 10.9247C14.1113 10.6923 14.0356 10.4598 13.9221 10.2467C13.3358 8.94875 12.5604 7.78641 11.6715 6.70156C11.3688 6.33349 11.0473 6.00416 10.688 5.73294C10.253 5.40361 9.79904 5.38424 9.32621 5.65545C9.09925 5.79106 8.87229 5.92667 8.68316 6.12039C7.75641 6.91466 7.05662 7.90265 6.56487 9.02624C6.319 9.58804 6.14878 10.1886 6.16769 10.8279C6.18661 11.3703 6.319 11.874 6.48922 12.3777C6.8864 13.5013 7.4538 14.5086 8.09685 15.4966C9.95035 18.3056 12.201 20.6884 14.8489 22.7031C16.0404 23.6136 17.2887 24.4273 18.6883 24.989C19.2746 25.2215 19.8798 25.4152 20.504 25.4152C20.9011 25.4346 21.2605 25.3571 21.6198 25.2215ZM7.66184 9.43306C8.09685 8.48382 8.68316 7.6508 9.4586 6.9534C9.57208 6.85654 9.70447 6.77905 9.83687 6.68219C9.91252 6.62407 9.96926 6.64344 10.0449 6.70156C10.3097 6.9534 10.5745 7.18587 10.8014 7.47645C11.6147 8.44507 12.3145 9.51055 12.863 10.6729C12.9386 10.8085 12.9765 10.9635 13.0332 11.1185C13.071 11.1959 13.0521 11.2541 12.9765 11.2928C12.7684 11.409 12.5604 11.5446 12.3334 11.6415C12.0875 11.7577 11.8228 11.874 11.5958 11.9902C11.4256 12.0871 11.2554 12.2033 11.1041 12.3389C10.8014 12.6101 10.7069 12.9782 10.8014 13.385C10.9149 13.8887 11.1608 14.3149 11.4067 14.7605C12.1065 15.9228 12.9386 17.027 13.9221 17.9763C14.8867 18.9061 15.9269 19.7198 17.0806 20.3591C17.3076 20.4753 17.5535 20.5915 17.7994 20.669C18.3289 20.8434 18.7639 20.7078 19.0855 20.2235C19.2746 19.9135 19.4259 19.5648 19.5961 19.2355C19.7096 19.003 19.8231 18.7512 19.9555 18.5187C20.05 18.3637 20.0689 18.3637 20.2392 18.4218C20.7876 18.6155 21.2983 18.9255 21.7901 19.2355C22.5655 19.7198 23.3031 20.2622 23.984 20.9015C24.1542 21.0565 24.3055 21.2502 24.4568 21.4245C24.5325 21.5214 24.5325 21.5989 24.4757 21.7151C24.2677 22.0638 24.0029 22.335 23.7192 22.6063C23.1518 23.1293 22.5088 23.5555 21.809 23.9042C21.0146 24.2916 20.2392 24.3304 19.407 24.0204C18.4613 23.6524 17.5724 23.1681 16.7213 22.6063C13.4871 20.4172 10.8014 17.6469 8.72098 14.2761C8.21033 13.4625 7.77532 12.6295 7.51053 11.6996C7.41597 11.3897 7.37814 11.0797 7.34032 10.9247C7.3214 10.2854 7.45379 9.85925 7.66184 9.43306Z" fill="white"/>
</svg>
